<svg width="19" height="18" viewBox="0 0 19 18" fill="none" xmlns="http://www.w3.org/2000/svg">
<rect x="8.50586" y="7.65039" width="2.7" height="2.7" stroke="#101F4C" stroke-linecap="round" stroke-linejoin="round"/>
<path d="M14.5797 6.3C15.6981 6.3 16.6047 5.39338 16.6047 4.275C16.6047 3.15662 15.6981 2.25 14.5797 2.25C13.4613 2.25 12.5547 3.15662 12.5547 4.275" stroke="#101F4C" stroke-linecap="round" stroke-linejoin="round"/>
<path d="M5.13125 6.3C4.01287 6.3 3.10625 5.39338 3.10625 4.275C3.10625 3.15662 4.01287 2.25 5.13125 2.25C6.24963 2.25 7.15625 3.15662 7.15625 4.275" stroke="#101F4C" stroke-linecap="round" stroke-linejoin="round"/>
<path d="M14.5797 11.7C15.6981 11.7 16.6047 12.6066 16.6047 13.725C16.6047 14.8434 15.6981 15.75 14.5797 15.75C13.4613 15.75 12.5547 14.8434 12.5547 13.725" stroke="#101F4C" stroke-linecap="round" stroke-linejoin="round"/>
<path d="M5.13125 11.7C4.01287 11.7 3.10625 12.6066 3.10625 13.725C3.10625 14.8434 4.01287 15.75 5.13125 15.75C6.24963 15.75 7.15625 14.8434 7.15625 13.725" stroke="#101F4C" stroke-linecap="round" stroke-linejoin="round"/>
<path d="M14.5809 4.27539L11.0554 7.80086M5.13086 13.7254L8.67834 10.1779" stroke="#101F4C" stroke-linecap="round" stroke-linejoin="round"/>
<path d="M5.13008 4.27539L8.65554 7.80086M14.5801 13.7254L11.0326 10.1779" stroke="#101F4C" stroke-linecap="round" stroke-linejoin="round"/>
</svg>
