<svg width="19" height="18" viewBox="0 0 19 18" fill="none" xmlns="http://www.w3.org/2000/svg">
<path d="M3.85645 10.6364V13C3.85645 14.1046 4.75188 15 5.85645 15H13.8564C14.961 15 15.8564 14.1046 15.8564 13V10.6364M3.85645 10.6364V5C3.85645 3.89543 4.75188 3 5.85645 3H13.8564C14.961 3 15.8564 3.89543 15.8564 5V10.6364M3.85645 10.6364L6.57985 8.27608C7.35621 7.60323 8.51607 7.62803 9.26296 8.33343L11.1238 10.0909M12.8564 11.7273L11.1238 10.0909M11.1238 10.0909C11.1592 9.99067 11.4511 9.69468 11.818 9.35108C12.5514 8.66422 13.688 8.68478 14.4349 9.35698L15.8564 10.6364" stroke="#101F4C" stroke-linecap="round" stroke-linejoin="round"/>
</svg>
